<svg width="24" height="24" viewBox="0 0 24 24" fill="none" xmlns="http://www.w3.org/2000/svg">
<g id="facebook-ic">
<g id="Group">
<path id="Vector" d="M2 12.06C2.00056 14.456 2.85047 16.7732 4.39696 18.5952C5.94345 20.4171 8.08511 21.6244 10.437 21.9999V14.9678H7.9V12.06H10.44V9.84639C10.3839 9.3283 10.4419 8.80414 10.6098 8.31114C10.7777 7.81814 11.0515 7.36839 11.4116 6.99384C11.7718 6.61928 12.2095 6.3291 12.6936 6.14392C13.1778 5.95873 13.6965 5.88308 14.213 5.92234C14.963 5.93441 15.713 6.00182 16.453 6.12357V8.59773H15.189C14.9742 8.56942 14.7558 8.59005 14.5499 8.65809C14.3441 8.72612 14.1561 8.83983 13.9998 8.99081C13.8435 9.14179 13.7229 9.32618 13.647 9.53035C13.571 9.73451 13.5416 9.95325 13.561 10.1704V12.06H16.332L15.889 14.9688H13.561V21.9999C15.4486 21.6997 17.2112 20.8616 18.6402 19.5848C20.0691 18.3081 21.1045 16.646 21.6238 14.7955C22.143 12.9451 22.1244 10.9836 21.5702 9.14341C21.0159 7.30323 19.9492 5.66137 18.4964 4.41223C17.0435 3.16308 15.2653 2.35897 13.3724 2.09508C11.4794 1.8312 9.55092 2.1186 7.81525 2.92326C6.07958 3.72792 4.60942 5.01613 3.5788 6.63539C2.54819 8.25464 2.0003 10.1371 2 12.06Z" fill="#808080"/>
</g>
</g>
</svg>
